<svg width="34" height="34" viewBox="0 0 34 34" fill="none" xmlns="http://www.w3.org/2000/svg">
<g clip-path="url(#clip0_884_23)">
<path d="M15.3734 0.0730515C12.1527 0.405083 9.11133 1.6336 6.51484 3.63906C5.77773 4.20352 4.20391 5.77735 3.63945 6.51446C2.59023 7.8625 1.5875 9.66211 1.02305 11.1895C0.710938 12.0395 0.3125 13.6266 0.159766 14.6426C-0.0128906 15.7582 -0.0128906 18.2352 0.159766 19.3574C0.3125 20.3602 0.710938 21.9539 1.02969 22.8172C1.59414 24.3512 2.59023 26.1375 3.63945 27.4855C4.17734 28.1828 5.69805 29.7168 6.37539 30.2547C7.75 31.3371 9.61602 32.393 11.1832 32.9707C12.0465 33.2895 13.6402 33.6879 14.643 33.8406C15.6258 33.9867 18.1758 34.0133 19.0922 33.8805C22.293 33.4223 24.9891 32.2867 27.4926 30.3609C28.1766 29.8297 29.7105 28.309 30.2551 27.625C31.3242 26.2703 32.4 24.3645 32.9711 22.8172C33.2898 21.9539 33.6883 20.3602 33.841 19.3574C33.934 18.7598 33.9605 18.1688 33.9605 17C33.9605 15.2004 33.8742 14.4367 33.4691 12.843C33.1504 11.5813 32.8516 10.7844 32.2406 9.5293C30.9391 6.85313 28.9203 4.55547 26.3969 2.86211C24.2785 1.44102 22.0074 0.571098 19.391 0.166019C18.5543 0.0398483 16.2234 -0.0199203 15.3734 0.0730515ZM18.3617 2.0586C23.5746 2.53672 28.1898 5.73086 30.4809 10.4523C31.1848 11.8934 31.5832 13.1684 31.8488 14.8418C32.0148 15.8645 32.0148 18.1356 31.8488 19.1582C31.5832 20.8316 31.1848 22.1066 30.4809 23.5477C29 26.5891 26.5961 28.993 23.5414 30.4871C22.107 31.1844 20.832 31.5828 19.1586 31.8484C18.1359 32.0145 15.8648 32.0145 14.8422 31.8484C11.9668 31.3836 9.47656 30.2547 7.30508 28.4352C3.99805 25.666 1.99258 21.3496 1.99258 17C1.99258 12.6504 3.99141 8.35391 7.30508 5.55821C10.3863 2.96836 14.4039 1.69336 18.3617 2.0586Z" fill="#471F11"/>
<path d="M16.5219 4.19023C16.0703 4.42266 16.0039 4.66172 16.0039 6.04297C16.0039 7.11211 16.0172 7.27148 16.1367 7.50391C16.2895 7.80273 16.668 8.03516 17 8.03516C17.332 8.03516 17.7105 7.80273 17.8633 7.50391C17.9828 7.27148 17.9961 7.11211 17.9961 6.04297C17.9961 4.97383 17.9828 4.81445 17.8633 4.58203C17.6176 4.09727 17.0199 3.92461 16.5219 4.19023Z" fill="#471F11"/>
<path d="M8.04916 7.70312C7.37846 8.11484 7.4183 9.06445 8.12221 9.4164C8.54721 9.63554 8.88588 9.57577 9.23119 9.23046C9.5765 8.88515 9.63627 8.54648 9.41713 8.12148C9.15814 7.60351 8.53393 7.41093 8.04916 7.70312Z" fill="#471F11"/>
<path d="M24.9696 7.69649C24.6375 7.86915 24.4117 8.33399 24.4715 8.69922C24.5379 9.07774 24.9231 9.4629 25.2949 9.5293C25.6668 9.58907 26.1383 9.35665 26.311 9.03126C26.7692 8.15469 25.8395 7.22501 24.9696 7.69649Z" fill="#471F11"/>
<path d="M16.5219 10.1668C16.3691 10.2465 16.2164 10.3992 16.1367 10.5586C16.0105 10.8109 16.0039 10.9437 16.0039 14.0117C16.0039 16.8008 16.0172 17.2324 16.1102 17.4184C16.2562 17.7105 22.2195 23.6871 22.525 23.8465C22.6645 23.9129 22.8637 23.9727 22.9766 23.9727C23.3086 23.9727 23.6871 23.7402 23.8398 23.4414C24.0059 23.116 24.0059 22.8437 23.8465 22.525C23.7734 22.3922 22.432 20.9977 20.8582 19.4238L17.9961 16.5684V13.693C17.9961 10.9437 17.9895 10.8043 17.8633 10.5586C17.6176 10.0738 17.0199 9.90117 16.5219 10.1668Z" fill="#471F11"/>
<path d="M4.56875 16.1434C4.2832 16.2895 4.05078 16.6812 4.05078 17C4.05078 17.332 4.2832 17.7105 4.58203 17.8633C4.81445 17.9828 4.97383 17.9961 6.04297 17.9961C7.4375 17.9961 7.66328 17.9297 7.90234 17.4648C8.06836 17.1328 8.06836 16.8672 7.90234 16.5352C7.66328 16.0637 7.44414 16.0039 6.02969 16.0039C4.95391 16.0105 4.78789 16.0238 4.56875 16.1434Z" fill="#471F11"/>
<path d="M26.4828 16.1434C26.1973 16.2895 25.9648 16.6812 25.9648 17C25.9648 17.332 26.1973 17.7105 26.4961 17.8633C26.7285 17.9828 26.8879 17.9961 27.957 17.9961C29.0262 17.9961 29.1855 17.9828 29.418 17.8633C29.7168 17.7105 29.9492 17.332 29.9492 17C29.9492 16.668 29.7168 16.2895 29.418 16.1367C29.1855 16.0172 29.0328 16.0039 27.9438 16.0039C26.868 16.0105 26.702 16.0238 26.4828 16.1434Z" fill="#471F11"/>
<path d="M8.1088 24.5836C7.41818 24.9555 7.38497 25.8918 8.04904 26.2969C8.52052 26.5824 9.14474 26.3965 9.417 25.8918C9.86857 25.0485 8.95216 24.132 8.1088 24.5836Z" fill="#471F11"/>
<path d="M25.1286 24.5105C25.0091 24.5437 24.8298 24.6699 24.7169 24.7961C24.1524 25.4402 24.604 26.4297 25.4673 26.4297C26.4766 26.4297 26.7954 25.0484 25.8989 24.5836C25.5868 24.4242 25.454 24.4176 25.1286 24.5105Z" fill="#471F11"/>
<path d="M16.5219 26.1043C16.0703 26.3367 16.0039 26.5758 16.0039 27.957C16.0039 29.3516 16.0703 29.5773 16.5352 29.8164C16.8672 29.9824 17.1328 29.9824 17.4648 29.8164C17.9297 29.5773 17.9961 29.3516 17.9961 27.957C17.9961 26.8879 17.9828 26.7285 17.8633 26.4961C17.6176 26.0113 17.0199 25.8387 16.5219 26.1043Z" fill="#471F11"/>
</g>
<defs>
<clipPath id="clip0_884_23">
<rect width="34" height="34" fill="white"/>
</clipPath>
</defs>
</svg>
