<svg width="14" height="14" viewBox="0 0 14 14" fill="none" xmlns="http://www.w3.org/2000/svg">
<path d="M13.8779 2.77832C13.8292 2.72008 13.7684 2.67324 13.6996 2.6411C13.6309 2.60896 13.5559 2.59231 13.48 2.59232H3.02522L2.63119 0.425789C2.60949 0.306327 2.54654 0.198271 2.45334 0.120459C2.36013 0.0426481 2.24257 1.75482e-05 2.12115 0H0.518461C0.380957 0 0.249084 0.0546238 0.151854 0.151855C0.0546234 0.249086 0 0.380959 0 0.518464C0 0.65597 0.0546234 0.787843 0.151854 0.885074C0.249084 0.982305 0.380957 1.03693 0.518461 1.03693H1.685L3.34148 10.1289C3.39027 10.3985 3.50944 10.6505 3.68691 10.8592C3.44196 11.088 3.26517 11.3802 3.17613 11.7033C3.08709 12.0264 3.08928 12.3679 3.18246 12.6899C3.27564 13.0118 3.45617 13.3017 3.70403 13.5273C3.95189 13.7529 4.25739 13.9055 4.58667 13.9681C4.91594 14.0307 5.25611 14.0008 5.56947 13.8819C5.88283 13.763 6.15712 13.5596 6.36193 13.2943C6.56675 13.0289 6.69408 12.7121 6.72981 12.3788C6.76554 12.0456 6.70828 11.7089 6.56436 11.4062H9.50793C9.39194 11.649 9.33192 11.9148 9.3323 12.1839C9.3323 12.5428 9.43872 12.8937 9.63811 13.1921C9.83751 13.4905 10.1209 13.7231 10.4525 13.8604C10.7841 13.9978 11.1489 14.0337 11.5009 13.9637C11.8529 13.8937 12.1763 13.7208 12.43 13.4671C12.6838 13.2133 12.8566 12.8899 12.9267 12.5379C12.9967 12.1859 12.9607 11.8211 12.8234 11.4895C12.6861 11.1579 12.4535 10.8745 12.1551 10.6751C11.8566 10.4757 11.5058 10.3693 11.1469 10.3693H4.87159C4.75017 10.3693 4.63261 10.3266 4.5394 10.2488C4.4462 10.171 4.38326 10.063 4.36155 9.9435L4.15611 8.8139H11.6738C12.038 8.81384 12.3907 8.68595 12.6703 8.45252C12.95 8.21908 13.1388 7.89492 13.2039 7.53653L13.992 3.20346C14.0053 3.12857 14.002 3.05166 13.9823 2.97819C13.9626 2.90471 13.9269 2.83648 13.8779 2.77832ZM5.70307 12.1839C5.70307 12.3377 5.65746 12.4881 5.57201 12.616C5.48655 12.7439 5.36509 12.8436 5.22299 12.9024C5.08088 12.9613 4.92452 12.9767 4.77366 12.9467C4.6228 12.9167 4.48423 12.8426 4.37547 12.7338C4.26671 12.6251 4.19264 12.4865 4.16263 12.3356C4.13262 12.1848 4.14802 12.0284 4.20689 11.8863C4.26575 11.7442 4.36543 11.6227 4.49332 11.5373C4.62121 11.4518 4.77157 11.4062 4.92538 11.4062C5.13164 11.4062 5.32944 11.4882 5.47529 11.634C5.62114 11.7798 5.70307 11.9777 5.70307 12.1839ZM11.9246 12.1839C11.9246 12.3377 11.879 12.4881 11.7935 12.616C11.7081 12.7439 11.5866 12.8436 11.4445 12.9024C11.3024 12.9613 11.146 12.9767 10.9952 12.9467C10.8443 12.9167 10.7058 12.8426 10.597 12.7338C10.4882 12.6251 10.4142 12.4865 10.3842 12.3356C10.3542 12.1848 10.3696 12.0284 10.4284 11.8863C10.4873 11.7442 10.587 11.6227 10.7148 11.5373C10.8427 11.4518 10.9931 11.4062 11.1469 11.4062C11.3532 11.4062 11.551 11.4882 11.6968 11.634C11.8427 11.7798 11.9246 11.9777 11.9246 12.1839ZM12.1838 7.35118C12.1621 7.47097 12.0988 7.57928 12.0052 7.65713C11.9116 7.73498 11.7936 7.77741 11.6719 7.77697H3.96752L3.21381 3.62925H12.8585L12.1838 7.35118Z" fill="#471F11"/>
</svg>
