<svg width="38" height="34" viewBox="0 0 38 34" fill="none" xmlns="http://www.w3.org/2000/svg">
<path d="M11.2514 0.0113945C9.03222 0.293304 6.4123 1.1687 4.63105 2.23698C1.46191 4.1213 -0.156057 6.58428 0.022068 9.23272C0.170506 11.3025 0.86074 12.3931 3.11699 14.1438C4.73496 15.3902 5.00957 15.8056 5.00957 17C5.00957 18.2018 4.70527 18.6544 2.99082 19.9526C0.771677 21.6441 0.0443337 22.9052 0.0443337 25.1234C0.0443337 26.2362 0.185349 26.8742 0.638084 27.7792C1.07597 28.6324 1.46191 29.1517 2.25605 29.9455C4.31933 31.993 7.69629 33.5138 11.1475 33.9589C12.8768 34.1815 14.94 34.0183 16.9514 33.5138C22.9779 31.9856 27.7873 27.2154 29.3014 21.2657C29.6353 19.9304 29.8357 18.6024 29.8357 17.638C29.8357 17.2077 29.8432 17.1855 30.2662 16.7107C32.1959 14.5222 34.3037 11.9554 35.7287 10.0636C37.176 8.14219 37.9182 6.85877 37.9775 6.18368C38.0369 5.53084 37.5174 5.06347 36.8494 5.15991C35.9217 5.30086 33.6506 6.86619 30.2143 9.72977C29.4275 10.39 28.767 10.9093 28.7447 10.8871C28.7225 10.8722 28.5666 10.5384 28.3885 10.1526C27.4607 8.07542 26.2584 6.37656 24.6256 4.78898C22.0131 2.26665 18.7846 0.67165 15.1775 0.122673C14.2275 -0.01828 11.9936 -0.0850449 11.2514 0.0113945ZM15.1404 1.53221C19.0295 2.17763 22.5326 4.20291 24.9521 7.19261C25.9393 8.4241 26.9709 10.212 27.4459 11.5251L27.6018 11.9405L25.9541 13.4094C23.9799 15.175 22.7107 16.362 20.4768 18.4986L18.7994 20.1084L18.2131 20.2271C16.4021 20.6054 15.2518 21.4438 14.5467 22.8978C14.1979 23.61 14.0049 24.2851 13.6189 26.073C13.5521 26.392 13.3889 26.8593 13.2553 27.1116C12.9881 27.6383 12.6541 27.8757 12.0604 27.9499C11.3775 28.0463 11.0584 28.6398 11.4295 29.1146C11.7041 29.4633 13.5596 29.9751 15.1404 30.1384C17.5674 30.3832 19.69 29.7303 21.1076 28.306C21.9686 27.4454 22.6662 26.1471 23.0076 24.797C23.0818 24.5225 23.2822 24.2777 24.3213 23.202C25.0041 22.5046 26.1768 21.2583 26.9264 20.4348C27.6834 19.6039 28.3143 18.9363 28.3217 18.9511C28.3291 18.9585 28.292 19.2478 28.2326 19.5965C27.3791 24.5225 24.2693 28.714 19.8162 30.947C16.365 32.6755 12.4834 33.0984 9.0916 32.1265C5.64785 31.1325 3.02793 29.3297 1.92207 27.2006C1.16504 25.7317 1.26152 23.8919 2.17441 22.6159C2.53066 22.1188 2.87207 21.8073 4.05957 20.9022C5.78887 19.5891 6.45683 18.4911 6.45683 16.9629C6.45683 15.5014 5.77402 14.3961 4.04472 13.083C2.44902 11.8663 1.99629 11.3544 1.65488 10.3752C1.40254 9.67042 1.34316 8.56505 1.51386 7.85286C1.86269 6.35431 3.19121 4.77414 5.08379 3.59458C6.70918 2.57823 9.17324 1.71767 11.2811 1.42093C11.9713 1.32449 14.3092 1.39126 15.1404 1.53221ZM35.6174 7.81577C33.6209 10.7906 28.2994 17.0371 23.4307 22.1188C22.6439 22.9349 22.4584 23.0981 22.3545 23.0388C22.2877 22.9942 21.7682 22.4675 21.1893 21.8592L20.1502 20.7687L21.2264 19.7152C25.3381 15.724 30.9416 10.798 33.992 8.49828C34.9791 7.75642 36.0107 7.05165 36.0553 7.08875C36.0701 7.111 35.8697 7.43 35.6174 7.81577ZM20.2912 22.9275L21.6865 24.3222L21.5604 24.7599C20.9889 26.7555 19.69 28.0834 17.8197 28.5879C17.3818 28.7066 17.0182 28.7437 16.1795 28.7511C15.2369 28.7585 14.0271 28.6324 14.0271 28.5211C14.0271 28.5063 14.1088 28.3801 14.2127 28.2466C14.5021 27.8683 14.8139 27.1116 14.9846 26.3845C15.0662 26.0136 15.2221 25.3459 15.326 24.886C15.6822 23.38 16.2389 22.5417 17.2186 22.0447C17.6119 21.8444 18.5471 21.5402 18.8143 21.5328C18.8588 21.5254 19.5193 22.1559 20.2912 22.9275Z" fill="#471F11"/>
<path d="M14.7102 4.54415C13.8121 4.72219 12.9289 5.39729 12.5207 6.23559C12.298 6.69554 12.2832 6.77715 12.2832 7.54126C12.2832 8.32022 12.298 8.37957 12.5355 8.85436C13.8789 11.5325 17.8199 10.9612 18.332 8.00864C18.5547 6.75489 17.8199 5.36761 16.6621 4.82605C15.9645 4.49222 15.3781 4.41061 14.7102 4.54415ZM16.1723 6.14657C16.9367 6.62136 17.1965 7.58578 16.7512 8.34247C16.0906 9.4701 14.4727 9.45526 13.8492 8.32764C13.3594 7.42257 13.8344 6.25784 14.8141 5.94626C15.1852 5.82757 15.7938 5.91659 16.1723 6.14657Z" fill="#471F11"/>
<path d="M6.36055 6.91071C5.55156 7.11843 4.72031 7.80095 4.33437 8.5799C4.13398 8.99534 4.11914 9.08436 4.11914 9.87815C4.11914 10.6719 4.13398 10.761 4.33437 11.1764C4.63125 11.7773 5.21758 12.3486 5.84102 12.6453C6.30859 12.8679 6.39766 12.8827 7.125 12.8827C7.88203 12.8827 7.93398 12.8753 8.47578 12.6008C9.12891 12.2818 9.60391 11.807 9.92305 11.1542C10.116 10.7684 10.1309 10.6645 10.1309 9.87815C10.1309 9.08436 10.116 8.99534 9.91563 8.5799C9.61875 7.97899 9.03242 7.40776 8.41641 7.11843C8.01562 6.93297 7.81523 6.88846 7.28828 6.8662C6.93203 6.85136 6.51641 6.87362 6.36055 6.91071ZM7.77813 8.36476C8.86914 8.81729 9.12891 10.2565 8.26055 11.08C7.97109 11.3545 7.57031 11.5102 7.125 11.5102C5.62578 11.5102 4.89844 9.70753 5.98945 8.67634C6.42734 8.2609 7.20664 8.11995 7.77813 8.36476Z" fill="#471F11"/>
<path d="M21.4715 9.47011C20.8778 9.63332 20.4993 9.85588 20.0762 10.2787C18.8442 11.5102 18.8813 13.4168 20.1579 14.626C20.3805 14.8338 20.7516 15.0934 20.9817 15.2047C21.3676 15.3827 21.4938 15.405 22.2286 15.405C22.993 15.405 23.0746 15.3902 23.5422 15.1676C24.2325 14.8412 24.6629 14.4257 24.9969 13.7506C25.2567 13.2091 25.2715 13.1572 25.2715 12.445C25.2641 11.488 25.0934 11.0206 24.5145 10.3974C23.9356 9.76686 23.2379 9.43302 22.4438 9.38851C22.0653 9.36625 21.7239 9.39593 21.4715 9.47011ZM23.1192 11.028C24.1805 11.6512 24.1434 13.2907 23.045 13.8693C21.761 14.5444 20.2469 13.3575 20.6403 11.9702C20.759 11.5547 21.2786 10.9909 21.6719 10.8648C22.0801 10.7239 22.7332 10.798 23.1192 11.028Z" fill="#471F11"/>
<path d="M7.34698 22.0743C5.77354 22.4156 4.69737 23.9661 4.96456 25.5017C5.20206 26.8519 6.17432 27.8238 7.52511 28.0611C9.34346 28.3727 11.0579 26.9187 11.0579 25.0492C11.0579 23.5803 10.004 22.3266 8.53448 22.0447C8.05206 21.9556 7.86651 21.9556 7.34698 22.0743ZM8.50479 23.4913C8.92784 23.6174 9.35831 24.0106 9.53643 24.4334C9.68487 24.7895 9.67745 25.3979 9.52901 25.702C9.04659 26.6664 7.94073 26.978 7.07237 26.3994C6.58253 26.073 6.34503 25.6278 6.35245 25.0492C6.35245 24.3073 6.76065 23.7435 7.47315 23.4839C7.84425 23.3577 8.05948 23.3577 8.50479 23.4913Z" fill="#471F11"/>
</svg>
