<svg width="34" height="34" viewBox="0 0 34 34" fill="none" xmlns="http://www.w3.org/2000/svg">
<path d="M16.0099 0.132808C14.0575 0.544527 12.5501 1.9125 11.9525 3.81835C11.7466 4.48242 11.6935 5.70429 11.8528 6.41484C12.2247 8.12148 13.4532 9.56914 15.0735 10.2133C15.9501 10.5586 17.2384 10.6648 18.1282 10.459C20.5786 9.88789 22.2454 7.80273 22.2454 5.3125C22.2454 2.975 20.7712 0.989449 18.4935 0.26562C17.9689 0.0996046 16.5411 0.0199175 16.0099 0.132808ZM17.9489 1.50078C18.6794 1.68671 19.1841 1.9789 19.7552 2.55664C20.5587 3.36015 20.9173 4.21015 20.9173 5.32578C20.9173 6.4414 20.572 7.26484 19.7618 8.075C18.945 8.88515 18.1282 9.23046 16.9993 9.23046C15.8771 9.23046 15.0603 8.89179 14.2368 8.06835C13.4267 7.26484 13.0814 6.44804 13.0814 5.3125C13.0814 4.19023 13.4267 3.36679 14.2435 2.55664C14.8079 1.98554 15.2462 1.72656 15.9568 1.5207C16.4814 1.37461 17.4177 1.36132 17.9489 1.50078Z" fill="#471F11"/>
<path d="M7.01875 5.5914C5.29219 5.73749 3.6918 6.83984 2.88828 8.43359C2.45664 9.29687 2.35703 9.74843 2.36367 10.8574C2.36367 11.7539 2.38359 11.9066 2.54297 12.3848C2.64258 12.6769 2.8418 13.1351 2.99453 13.4074C3.27344 13.9055 4.07031 14.8019 4.48203 15.0809C4.6082 15.1672 4.71445 15.2601 4.71445 15.2801C4.71445 15.3 4.52852 15.4062 4.30273 15.5125C3.61875 15.8312 2.94805 16.3094 2.32383 16.907C1.22812 17.9695 0.524219 19.2113 0.158984 20.7719C0.0792969 21.1105 0.0460938 21.7148 0.0195312 23.2621L-0.0136719 25.3008L0.21875 25.5332L0.451172 25.7656H5.13945C10.173 25.7656 10.1133 25.7723 10.2926 25.4402C10.4254 25.1812 10.3723 24.8359 10.1664 24.6301L9.97383 24.4375H5.64414H1.31445L1.34766 22.8969C1.36758 21.7812 1.40742 21.2301 1.48711 20.9312C2.01836 18.866 3.36641 17.2988 5.28555 16.5285C6.02266 16.2363 6.64688 16.1168 7.53672 16.1101C8.61914 16.1101 9.25664 16.2496 10.359 16.741C11.0031 17.0266 11.2023 17.0266 11.4547 16.7211C11.6539 16.482 11.6738 16.1566 11.4945 15.9242C11.4215 15.8379 11.1559 15.6652 10.8969 15.5391C10.6379 15.4129 10.4254 15.2934 10.432 15.2734C10.432 15.2535 10.6113 15.1074 10.8305 14.9414C11.6805 14.2973 12.4043 13.1684 12.6898 12.0195C12.8094 11.5414 12.8293 11.3355 12.7961 10.5918C12.7563 9.6289 12.6566 9.21718 12.2582 8.42031C11.5941 7.09218 10.3059 6.06952 8.86484 5.71757C8.20742 5.5582 7.76914 5.52499 7.01875 5.5914ZM8.46641 6.98593C9.27656 7.15859 10.1863 7.74296 10.6844 8.41366C11.2355 9.15077 11.4879 9.90116 11.4879 10.8242C11.4879 11.9199 11.1359 12.7633 10.359 13.5535C8.79844 15.1406 6.38125 15.1539 4.81406 13.5801C3.9707 12.7367 3.61211 11.8004 3.67188 10.5918C3.71172 9.82148 3.87109 9.29023 4.24297 8.71913C5.16602 7.2914 6.78633 6.62734 8.46641 6.98593Z" fill="#471F11"/>
<path d="M25.898 5.58475C24.0586 5.73085 22.3055 7.01913 21.5683 8.77225C21.1832 9.68866 21.0703 10.9902 21.2894 11.973C21.5285 13.0488 22.332 14.3238 23.1687 14.9414C23.3879 15.1074 23.5672 15.2535 23.5738 15.2734C23.5738 15.2933 23.3613 15.4129 23.1023 15.5391C22.8433 15.6652 22.5777 15.8379 22.5047 15.9242C22.3254 16.1566 22.3453 16.482 22.5445 16.7211C22.7969 17.0266 22.9961 17.0266 23.6402 16.7344C25.0945 16.0836 26.3297 15.9375 27.7773 16.243C29.6965 16.6414 31.5027 18.1754 32.2066 19.9883C32.5785 20.9578 32.6183 21.2301 32.6515 22.8969L32.6847 24.4375H28.3551H24.0254L23.8328 24.6301C23.6269 24.8359 23.5738 25.1812 23.7066 25.4402C23.8859 25.7723 23.8262 25.7656 28.8597 25.7656H33.548L33.7804 25.5332L34.0129 25.3008L33.9797 23.2621C33.9531 21.7148 33.9199 21.1105 33.8402 20.7719C33.4949 19.3109 32.884 18.1621 31.8812 17.1195C31.2504 16.4488 30.6726 16.0172 29.9023 15.6187C29.5637 15.4461 29.2847 15.2867 29.2847 15.2601C29.2847 15.2402 29.3844 15.1539 29.5105 15.0808C29.8957 14.8418 30.7191 13.9187 31.0047 13.4074C31.1574 13.1351 31.3566 12.6769 31.4562 12.3848C31.6156 11.9066 31.6355 11.7539 31.6355 10.8574C31.6422 9.99413 31.6222 9.79491 31.4894 9.36327C30.9117 7.51718 29.5172 6.16913 27.7109 5.71757C27.0801 5.55819 26.6418 5.53163 25.898 5.58475ZM27.3258 6.98593C28.2488 7.1785 29.298 7.95546 29.816 8.82538C30.9648 10.7777 30.1879 13.3609 28.1558 14.3305C27.4984 14.6426 27.0734 14.7422 26.4094 14.7422C25.3402 14.7422 24.4371 14.3504 23.6402 13.5469C22.7969 12.7101 22.4781 11.8668 22.5246 10.6316C22.5711 9.56249 22.9031 8.79218 23.6402 8.04179C24.5965 7.07225 25.9312 6.69374 27.3258 6.98593Z" fill="#471F11"/>
<path d="M15.904 13.8523C14.0247 14.2707 12.5438 15.632 11.9528 17.498C11.7469 18.1555 11.6938 19.384 11.8466 20.0813C12.1321 21.3496 12.8094 22.432 13.7923 23.1758L14.2106 23.4945L13.852 23.6406C13.6528 23.7203 13.2278 23.9527 12.9024 24.1652C11.0962 25.334 9.88757 27.1801 9.52898 29.325C9.44265 29.8496 9.42273 30.3543 9.44265 31.7953L9.46257 33.6148L9.64851 33.7742L9.83444 33.9336H16.9997H24.1649L24.3509 33.7742L24.5368 33.6148L24.5567 31.7953C24.5766 30.3477 24.5567 29.8496 24.4704 29.325C24.1915 27.6582 23.3946 26.1574 22.1727 25.002C21.6415 24.5039 20.6852 23.8531 20.1473 23.634L19.802 23.4879L20.1938 23.1957C21.1567 22.4719 21.8739 21.3297 22.1462 20.0945C22.3122 19.3375 22.2591 18.1555 22.02 17.4316C21.7344 16.5484 21.3758 15.9773 20.6587 15.2734C20.1141 14.7289 19.9282 14.5895 19.3903 14.3305C19.045 14.1578 18.5801 13.9719 18.361 13.9121C17.7833 13.7527 16.4817 13.7262 15.904 13.8523ZM17.8098 15.1473C18.0024 15.1871 18.4141 15.3398 18.7262 15.4859C19.7356 15.9707 20.5258 16.9469 20.818 18.0625C20.9708 18.6469 20.9243 19.7227 20.7184 20.3004C20.3001 21.5023 19.2309 22.4918 18.0223 22.8039C17.4977 22.9367 16.4817 22.9434 15.977 22.8105C14.7684 22.4984 13.6993 21.5023 13.2809 20.3004C13.0817 19.7359 13.0286 18.6469 13.1747 18.0824C13.5333 16.6746 14.702 15.5059 16.0833 15.1672C16.5282 15.0609 17.3516 15.0543 17.8098 15.1473ZM18.6532 24.4973C20.8579 25.1414 22.4516 26.775 23.0559 29.0063C23.1755 29.4379 23.202 29.7633 23.2286 31.0648L23.2551 32.6055H17.0063H10.7575V31.2574C10.7575 29.75 10.8505 29.1191 11.2157 28.1895C11.9262 26.3434 13.6926 24.8559 15.7048 24.4109C16.3954 24.2582 17.9891 24.3047 18.6532 24.4973Z" fill="#471F11"/>
</svg>
