<svg width="9" height="16" viewBox="0 0 9 16" fill="none" xmlns="http://www.w3.org/2000/svg">
<path d="M7.70934 0.946383L0.210175 7.76422C0.14045 7.82754 0.0851355 7.90273 0.0473967 7.9855C0.00965786 8.06827 -0.00976562 8.15699 -0.00976562 8.24658C-0.00976562 8.33618 0.00965786 8.4249 0.0473967 8.50766C0.0851355 8.59043 0.14045 8.66563 0.210175 8.72894L7.70934 15.5468C7.85005 15.6747 8.0409 15.7466 8.2399 15.7466C8.4389 15.7466 8.62975 15.6747 8.77047 15.5468C8.91118 15.4189 8.99023 15.2453 8.99023 15.0644C8.99023 14.8835 8.91118 14.71 8.77047 14.5821L1.80093 8.24658L8.77047 1.91111C8.84014 1.84776 8.89541 1.77256 8.93312 1.6898C8.97083 1.60703 8.99023 1.51833 8.99023 1.42875C8.99023 1.33916 8.97083 1.25046 8.93312 1.16769C8.89541 1.08493 8.84014 1.00973 8.77047 0.946383C8.70079 0.883038 8.61808 0.832791 8.52704 0.79851C8.43601 0.764228 8.33844 0.746582 8.2399 0.746582C8.14137 0.746582 8.0438 0.764228 7.95276 0.79851C7.86173 0.832791 7.77901 0.883038 7.70934 0.946383Z" fill="#471F11"/>
</svg>
