<svg width="9" height="16" viewBox="0 0 9 16" fill="none" xmlns="http://www.w3.org/2000/svg">
<path d="M1.27113 15.5468L8.77029 8.72895C8.84002 8.66563 8.89533 8.59043 8.93307 8.50767C8.97081 8.4249 8.99023 8.33618 8.99023 8.24658C8.99023 8.15698 8.97081 8.06827 8.93307 7.9855C8.89533 7.90273 8.84002 7.82754 8.77029 7.76422L1.27113 0.946383C1.13042 0.818453 0.939568 0.746582 0.740567 0.746582C0.541567 0.746582 0.350716 0.818453 0.210001 0.946383C0.0692867 1.07431 -0.00976565 1.24782 -0.00976565 1.42874C-0.00976566 1.60967 0.0692866 1.78318 0.210001 1.91111L7.17954 8.24658L0.210001 14.5821C0.140326 14.6454 0.0850569 14.7206 0.0473491 14.8034C0.00964135 14.8861 -0.00976625 14.9748 -0.00976625 15.0644C-0.00976625 15.154 0.00964134 15.2427 0.0473491 15.3255C0.0850569 15.4082 0.140326 15.4834 0.210001 15.5468C0.279676 15.6101 0.362392 15.6604 0.453427 15.6947C0.544461 15.7289 0.642032 15.7466 0.740567 15.7466C0.839102 15.7466 0.936672 15.7289 1.02771 15.6947C1.11874 15.6604 1.20146 15.6101 1.27113 15.5468Z" fill="#471F11"/>
</svg>
